<svg width="38" height="38" viewBox="0 0 38 38" fill="none" xmlns="http://www.w3.org/2000/svg">
<path d="M27.5041 31.3927L32.0007 26.9657L31.0096 25.973L27.5041 29.4294L25.9904 27.8857L24.9976 28.8863L27.5041 31.3927ZM10.7191 13.8225H27.284V12.2392H10.7176L10.7191 13.8225ZM28.5 35.0154C26.7361 35.0154 25.2394 34.4011 24.0096 33.1724C22.7799 31.9437 22.1656 30.447 22.1666 28.6821C22.1666 26.9193 22.781 25.423 24.0096 24.1933C25.2383 22.9636 26.7351 22.3487 28.5 22.3487C30.2638 22.3487 31.7606 22.9636 32.9903 24.1933C34.22 25.423 34.8344 26.9193 34.8333 28.6821C34.8333 30.447 34.219 31.9437 32.9903 33.1724C31.7595 34.4011 30.2628 35.0154 28.5 35.0154ZM6.33331 32.8858V8.89041C6.33331 8.18319 6.58242 7.57994 7.08065 7.08066C7.57887 6.58244 8.18212 6.33333 8.8904 6.33333H29.1096C29.8168 6.33333 30.42 6.58244 30.9193 7.08066C31.4175 7.57888 31.6666 8.18213 31.6666 8.89041V18.3033C31.4091 18.2083 31.1531 18.1271 30.8987 18.0595C30.6454 17.9919 30.3736 17.9392 30.0833 17.9012V8.892C30.0833 8.64816 29.982 8.42438 29.7793 8.22066C29.5756 8.01799 29.3523 7.91666 29.1096 7.91666H8.8904C8.64762 7.91666 8.42437 8.01799 8.22065 8.22066C8.01798 8.42438 7.91665 8.64763 7.91665 8.89041V30.1625H17.9613C18.0331 30.5953 18.126 31.0186 18.24 31.4323C18.355 31.8461 18.515 32.2409 18.7197 32.6167L18.6643 32.6721L16.8688 31.3627L14.7376 32.8842L12.6065 31.3627L10.4737 32.8842L8.34256 31.3627L6.33331 32.8858ZM10.7191 25.7608H18.1751C18.2342 25.4706 18.307 25.1987 18.3936 24.9454C18.4812 24.6921 18.583 24.4361 18.6991 24.1775H10.7191V25.7608ZM10.7191 19.7932H22.2933C22.8105 19.3847 23.3647 19.0443 23.9558 18.772C24.5469 18.4986 25.1787 18.3112 25.8511 18.2099H10.7176L10.7191 19.7932Z" fill="#D60024"/>
</svg>
