<svg width="26" height="26" viewBox="0 0 26 26" fill="none" xmlns="http://www.w3.org/2000/svg">
<path d="M10.551 9.08164H2.71426C2.32455 9.08164 1.95081 8.92683 1.67525 8.65126C1.39968 8.3757 1.24487 8.00196 1.24487 7.61225V2.71429C1.24487 2.32459 1.39968 1.95084 1.67525 1.67528C1.95081 1.39971 2.32455 1.2449 2.71426 1.2449H10.551C10.9407 1.2449 11.3144 1.39971 11.59 1.67528C11.8656 1.95084 12.0204 2.32459 12.0204 2.71429V7.61225C12.0204 8.00196 11.8656 8.3757 11.59 8.65126C11.3144 8.92683 10.9407 9.08164 10.551 9.08164ZM2.71426 2.2245C2.58436 2.2245 2.45978 2.2761 2.36792 2.36795C2.27607 2.45981 2.22446 2.58439 2.22446 2.71429V7.61225C2.22446 7.74215 2.27607 7.86673 2.36792 7.95859C2.45978 8.05044 2.58436 8.10205 2.71426 8.10205H10.551C10.6809 8.10205 10.8055 8.05044 10.8973 7.95859C10.9892 7.86673 11.0408 7.74215 11.0408 7.61225V2.71429C11.0408 2.58439 10.9892 2.45981 10.8973 2.36795C10.8055 2.2761 10.6809 2.2245 10.551 2.2245H2.71426Z" fill="white" stroke="white" stroke-width="0.2"/>
<path d="M10.551 9.32653H2.71429C2.25979 9.32601 1.82405 9.14523 1.50268 8.82386C1.1813 8.50248 1.00052 8.06674 1 7.61225V2.71429C1.00052 2.25979 1.1813 1.82405 1.50268 1.50268C1.82405 1.1813 2.25979 1.00052 2.71429 1H10.551C11.0055 1.00052 11.4413 1.1813 11.7626 1.50268C12.084 1.82405 12.2648 2.25979 12.2653 2.71429V7.61225C12.2648 8.06674 12.084 8.50248 11.7626 8.82386C11.4413 9.14523 11.0055 9.32601 10.551 9.32653ZM2.71429 1.4898C2.38961 1.49006 2.07831 1.61915 1.84873 1.84873C1.61915 2.07831 1.49006 2.38961 1.4898 2.71429V7.61225C1.49006 7.93692 1.61915 8.24822 1.84873 8.4778C2.07831 8.70738 2.38961 8.83648 2.71429 8.83673H10.551C10.8757 8.83648 11.187 8.70738 11.4166 8.4778C11.6462 8.24822 11.7753 7.93692 11.7755 7.61225V2.71429C11.7753 2.38961 11.6462 2.07831 11.4166 1.84873C11.187 1.61915 10.8757 1.49006 10.551 1.4898H2.71429ZM10.551 8.34694H2.71429C2.51951 8.34668 2.33279 8.26919 2.19506 8.13147C2.05734 7.99374 1.97985 7.80702 1.97959 7.61225V2.71429C1.97985 2.51951 2.05734 2.33279 2.19506 2.19506C2.33279 2.05734 2.51951 1.97985 2.71429 1.97959H10.551C10.7458 1.97985 10.9325 2.05734 11.0702 2.19506C11.208 2.33279 11.2855 2.51951 11.2857 2.71429V7.61225C11.2855 7.80702 11.208 7.99374 11.0702 8.13147C10.9325 8.26919 10.7458 8.34668 10.551 8.34694ZM2.71429 2.46939C2.64933 2.46939 2.58704 2.49519 2.54112 2.54112C2.49519 2.58704 2.46939 2.64933 2.46939 2.71429V7.61225C2.46939 7.6772 2.49519 7.73949 2.54112 7.78541C2.58704 7.83134 2.64933 7.85714 2.71429 7.85714H10.551C10.616 7.85714 10.6783 7.83134 10.7242 7.78541C10.7701 7.73949 10.7959 7.6772 10.7959 7.61225V2.71429C10.7959 2.64933 10.7701 2.58704 10.7242 2.54112C10.6783 2.49519 10.616 2.46939 10.551 2.46939H2.71429Z" fill="white" stroke="white" stroke-width="0.2"/>
<path d="M10.551 9.32653H2.71429C2.25979 9.32601 1.82405 9.14523 1.50268 8.82386C1.1813 8.50248 1.00052 8.06674 1 7.61225V2.71429C1.00052 2.25979 1.1813 1.82405 1.50268 1.50268C1.82405 1.1813 2.25979 1.00052 2.71429 1H10.551C11.0055 1.00052 11.4413 1.1813 11.7626 1.50268C12.084 1.82405 12.2648 2.25979 12.2653 2.71429V7.61225C12.2648 8.06674 12.084 8.50248 11.7626 8.82386C11.4413 9.14523 11.0055 9.32601 10.551 9.32653ZM2.71429 1.4898C2.38961 1.49006 2.07831 1.61915 1.84873 1.84873C1.61915 2.07831 1.49006 2.38961 1.4898 2.71429V7.61225C1.49006 7.93692 1.61915 8.24822 1.84873 8.4778C2.07831 8.70738 2.38961 8.83648 2.71429 8.83673H10.551C10.8757 8.83648 11.187 8.70738 11.4166 8.4778C11.6462 8.24822 11.7753 7.93692 11.7755 7.61225V2.71429C11.7753 2.38961 11.6462 2.07831 11.4166 1.84873C11.187 1.61915 10.8757 1.49006 10.551 1.4898H2.71429ZM10.551 8.34694H2.71429C2.51951 8.34668 2.33279 8.26919 2.19506 8.13147C2.05734 7.99374 1.97985 7.80702 1.97959 7.61225V2.71429C1.97985 2.51951 2.05734 2.33279 2.19506 2.19506C2.33279 2.05734 2.51951 1.97985 2.71429 1.97959H10.551C10.7458 1.97985 10.9325 2.05734 11.0702 2.19506C11.208 2.33279 11.2855 2.51951 11.2857 2.71429V7.61225C11.2855 7.80702 11.208 7.99374 11.0702 8.13147C10.9325 8.26919 10.7458 8.34668 10.551 8.34694ZM2.71429 2.46939C2.64933 2.46939 2.58704 2.49519 2.54112 2.54112C2.49519 2.58704 2.46939 2.64933 2.46939 2.71429V7.61225C2.46939 7.6772 2.49519 7.73949 2.54112 7.78541C2.58704 7.83134 2.64933 7.85714 2.71429 7.85714H10.551C10.616 7.85714 10.6783 7.83134 10.7242 7.78541C10.7701 7.73949 10.7959 7.6772 10.7959 7.61225V2.71429C10.7959 2.64933 10.7701 2.58704 10.7242 2.54112C10.6783 2.49519 10.616 2.46939 10.551 2.46939H2.71429Z" fill="white" stroke="white" stroke-width="0.2"/>
<path d="M10.551 24.7551H2.71426C2.32455 24.7551 1.95081 24.6003 1.67525 24.3247C1.39968 24.0492 1.24487 23.6754 1.24487 23.2857V12.5102C1.24487 12.1205 1.39968 11.7468 1.67525 11.4712C1.95081 11.1956 2.32455 11.0408 2.71426 11.0408H10.551C10.9407 11.0408 11.3144 11.1956 11.59 11.4712C11.8656 11.7468 12.0204 12.1205 12.0204 12.5102V23.2857C12.0204 23.6754 11.8656 24.0492 11.59 24.3247C11.3144 24.6003 10.9407 24.7551 10.551 24.7551ZM2.71426 12.0204C2.58436 12.0204 2.45978 12.072 2.36792 12.1639C2.27607 12.2557 2.22446 12.3803 2.22446 12.5102V23.2857C2.22446 23.4156 2.27607 23.5402 2.36792 23.6321C2.45978 23.7239 2.58436 23.7755 2.71426 23.7755H10.551C10.6809 23.7755 10.8055 23.7239 10.8973 23.6321C10.9892 23.5402 11.0408 23.4156 11.0408 23.2857V12.5102C11.0408 12.3803 10.9892 12.2557 10.8973 12.1639C10.8055 12.072 10.6809 12.0204 10.551 12.0204H2.71426Z" fill="white" stroke="white" stroke-width="0.2"/>
<path d="M10.551 25H2.71429C2.25979 24.9995 1.82405 24.8187 1.50268 24.4973C1.1813 24.176 1.00052 23.7402 1 23.2857V12.5102C1.00052 12.0557 1.1813 11.62 1.50268 11.2986C1.82405 10.9772 2.25979 10.7964 2.71429 10.7959H10.551C11.0055 10.7964 11.4413 10.9772 11.7626 11.2986C12.084 11.62 12.2648 12.0557 12.2653 12.5102V23.2857C12.2648 23.7402 12.084 24.176 11.7626 24.4973C11.4413 24.8187 11.0055 24.9995 10.551 25ZM2.71429 11.2857C2.38961 11.286 2.07831 11.4151 1.84873 11.6447C1.61915 11.8742 1.49006 12.1855 1.4898 12.5102V23.2857C1.49006 23.6104 1.61915 23.9217 1.84873 24.1513C2.07831 24.3809 2.38961 24.51 2.71429 24.5102H10.551C10.8757 24.51 11.187 24.3809 11.4166 24.1513C11.6462 23.9217 11.7753 23.6104 11.7755 23.2857V12.5102C11.7753 12.1855 11.6462 11.8742 11.4166 11.6447C11.187 11.4151 10.8757 11.286 10.551 11.2857H2.71429ZM10.551 24.0204H2.71429C2.51951 24.0202 2.33279 23.9427 2.19506 23.8049C2.05734 23.6672 1.97985 23.4805 1.97959 23.2857V12.5102C1.97985 12.3154 2.05734 12.1287 2.19506 11.991C2.33279 11.8533 2.51951 11.7758 2.71429 11.7755H10.551C10.7458 11.7758 10.9325 11.8533 11.0702 11.991C11.208 12.1287 11.2855 12.3154 11.2857 12.5102V23.2857C11.2855 23.4805 11.208 23.6672 11.0702 23.8049C10.9325 23.9427 10.7458 24.0202 10.551 24.0204ZM2.71429 12.2653C2.64933 12.2653 2.58704 12.2911 2.54112 12.337C2.49519 12.383 2.46939 12.4453 2.46939 12.5102V23.2857C2.46939 23.3507 2.49519 23.413 2.54112 23.4589C2.58704 23.5048 2.64933 23.5306 2.71429 23.5306H10.551C10.616 23.5306 10.6783 23.5048 10.7242 23.4589C10.7701 23.413 10.7959 23.3507 10.7959 23.2857V12.5102C10.7959 12.4453 10.7701 12.383 10.7242 12.337C10.6783 12.2911 10.616 12.2653 10.551 12.2653H2.71429Z" fill="white" stroke="white" stroke-width="0.2"/>
<path d="M10.551 25H2.71429C2.25979 24.9995 1.82405 24.8187 1.50268 24.4973C1.1813 24.176 1.00052 23.7402 1 23.2857V12.5102C1.00052 12.0557 1.1813 11.62 1.50268 11.2986C1.82405 10.9772 2.25979 10.7964 2.71429 10.7959H10.551C11.0055 10.7964 11.4413 10.9772 11.7626 11.2986C12.084 11.62 12.2648 12.0557 12.2653 12.5102V23.2857C12.2648 23.7402 12.084 24.176 11.7626 24.4973C11.4413 24.8187 11.0055 24.9995 10.551 25ZM2.71429 11.2857C2.38961 11.286 2.07831 11.4151 1.84873 11.6447C1.61915 11.8742 1.49006 12.1855 1.4898 12.5102V23.2857C1.49006 23.6104 1.61915 23.9217 1.84873 24.1513C2.07831 24.3809 2.38961 24.51 2.71429 24.5102H10.551C10.8757 24.51 11.187 24.3809 11.4166 24.1513C11.6462 23.9217 11.7753 23.6104 11.7755 23.2857V12.5102C11.7753 12.1855 11.6462 11.8742 11.4166 11.6447C11.187 11.4151 10.8757 11.286 10.551 11.2857H2.71429ZM10.551 24.0204H2.71429C2.51951 24.0202 2.33279 23.9427 2.19506 23.8049C2.05734 23.6672 1.97985 23.4805 1.97959 23.2857V12.5102C1.97985 12.3154 2.05734 12.1287 2.19506 11.991C2.33279 11.8533 2.51951 11.7758 2.71429 11.7755H10.551C10.7458 11.7758 10.9325 11.8533 11.0702 11.991C11.208 12.1287 11.2855 12.3154 11.2857 12.5102V23.2857C11.2855 23.4805 11.208 23.6672 11.0702 23.8049C10.9325 23.9427 10.7458 24.0202 10.551 24.0204ZM2.71429 12.2653C2.64933 12.2653 2.58704 12.2911 2.54112 12.337C2.49519 12.383 2.46939 12.4453 2.46939 12.5102V23.2857C2.46939 23.3507 2.49519 23.413 2.54112 23.4589C2.58704 23.5048 2.64933 23.5306 2.71429 23.5306H10.551C10.616 23.5306 10.6783 23.5048 10.7242 23.4589C10.7701 23.413 10.7959 23.3507 10.7959 23.2857V12.5102C10.7959 12.4453 10.7701 12.383 10.7242 12.337C10.6783 12.2911 10.616 12.2653 10.551 12.2653H2.71429Z" fill="white" stroke="white" stroke-width="0.2"/>
<path d="M23.2859 24.7551H15.4491C15.0594 24.7551 14.6857 24.6003 14.4101 24.3247C14.1345 24.0492 13.9797 23.6754 13.9797 23.2857V18.3878C13.9797 17.998 14.1345 17.6243 14.4101 17.3487C14.6857 17.0732 15.0594 16.9184 15.4491 16.9184H23.2859C23.6756 16.9184 24.0493 17.0732 24.3249 17.3487C24.6004 17.6243 24.7552 17.998 24.7552 18.3878V23.2857C24.7552 23.6754 24.6004 24.0492 24.3249 24.3247C24.0493 24.6003 23.6756 24.7551 23.2859 24.7551ZM15.4491 17.898C15.3192 17.898 15.1946 17.9496 15.1028 18.0414C15.0109 18.1333 14.9593 18.2579 14.9593 18.3878V23.2857C14.9593 23.4156 15.0109 23.5402 15.1028 23.6321C15.1946 23.7239 15.3192 23.7755 15.4491 23.7755H23.2859C23.4158 23.7755 23.5403 23.7239 23.6322 23.6321C23.7241 23.5402 23.7757 23.4156 23.7757 23.2857V18.3878C23.7757 18.2579 23.7241 18.1333 23.6322 18.0414C23.5403 17.9496 23.4158 17.898 23.2859 17.898H15.4491Z" fill="white" stroke="white" stroke-width="0.2"/>
<path d="M23.2858 25H15.449C14.9945 24.9995 14.5588 24.8187 14.2374 24.4973C13.916 24.1759 13.7353 23.7402 13.7347 23.2857V18.3877C13.7353 17.9332 13.916 17.4975 14.2374 17.1761C14.5588 16.8548 14.9945 16.674 15.449 16.6735H23.2858C23.7403 16.674 24.176 16.8548 24.4974 17.1761C24.8188 17.4975 24.9995 17.9332 25 18.3877V23.2857C24.9995 23.7402 24.8188 24.1759 24.4974 24.4973C24.176 24.8187 23.7403 24.9995 23.2858 25ZM15.449 17.1633C15.1244 17.1635 14.813 17.2926 14.5835 17.5222C14.3539 17.7518 14.2248 18.0631 14.2245 18.3877V23.2857C14.2248 23.6104 14.3539 23.9217 14.5835 24.1513C14.813 24.3808 15.1244 24.5099 15.449 24.5102H23.2858C23.6104 24.5099 23.9217 24.3808 24.1513 24.1513C24.3809 23.9217 24.51 23.6104 24.5103 23.2857V18.3877C24.51 18.0631 24.3809 17.7518 24.1513 17.5222C23.9217 17.2926 23.6104 17.1635 23.2858 17.1633H15.449ZM23.2858 24.0204H15.449C15.2543 24.0201 15.0675 23.9427 14.9298 23.8049C14.7921 23.6672 14.7146 23.4805 14.7143 23.2857V18.3877C14.7146 18.193 14.7921 18.0063 14.9298 17.8685C15.0675 17.7308 15.2543 17.6533 15.449 17.6531H23.2858C23.4805 17.6533 23.6673 17.7308 23.805 17.8685C23.9427 18.0063 24.0202 18.193 24.0205 18.3877V23.2857C24.0202 23.4805 23.9427 23.6672 23.805 23.8049C23.6673 23.9427 23.4805 24.0201 23.2858 24.0204ZM15.449 18.1428C15.3841 18.1428 15.3218 18.1687 15.2759 18.2146C15.2299 18.2605 15.2041 18.3228 15.2041 18.3877V23.2857C15.2041 23.3507 15.2299 23.4129 15.2759 23.4589C15.3218 23.5048 15.3841 23.5306 15.449 23.5306H23.2858C23.3507 23.5306 23.413 23.5048 23.4589 23.4589C23.5049 23.4129 23.5307 23.3507 23.5307 23.2857V18.3877C23.5307 18.3228 23.5049 18.2605 23.4589 18.2146C23.413 18.1687 23.3507 18.1428 23.2858 18.1428H15.449Z" fill="white" stroke="white" stroke-width="0.2"/>
<path d="M23.2858 25H15.449C14.9945 24.9995 14.5588 24.8187 14.2374 24.4973C13.916 24.1759 13.7353 23.7402 13.7347 23.2857V18.3877C13.7353 17.9332 13.916 17.4975 14.2374 17.1761C14.5588 16.8548 14.9945 16.674 15.449 16.6735H23.2858C23.7403 16.674 24.176 16.8548 24.4974 17.1761C24.8188 17.4975 24.9995 17.9332 25 18.3877V23.2857C24.9995 23.7402 24.8188 24.1759 24.4974 24.4973C24.176 24.8187 23.7403 24.9995 23.2858 25ZM15.449 17.1633C15.1244 17.1635 14.813 17.2926 14.5835 17.5222C14.3539 17.7518 14.2248 18.0631 14.2245 18.3877V23.2857C14.2248 23.6104 14.3539 23.9217 14.5835 24.1513C14.813 24.3808 15.1244 24.5099 15.449 24.5102H23.2858C23.6104 24.5099 23.9217 24.3808 24.1513 24.1513C24.3809 23.9217 24.51 23.6104 24.5103 23.2857V18.3877C24.51 18.0631 24.3809 17.7518 24.1513 17.5222C23.9217 17.2926 23.6104 17.1635 23.2858 17.1633H15.449ZM23.2858 24.0204H15.449C15.2543 24.0201 15.0675 23.9427 14.9298 23.8049C14.7921 23.6672 14.7146 23.4805 14.7143 23.2857V18.3877C14.7146 18.193 14.7921 18.0063 14.9298 17.8685C15.0675 17.7308 15.2543 17.6533 15.449 17.6531H23.2858C23.4805 17.6533 23.6673 17.7308 23.805 17.8685C23.9427 18.0063 24.0202 18.193 24.0205 18.3877V23.2857C24.0202 23.4805 23.9427 23.6672 23.805 23.8049C23.6673 23.9427 23.4805 24.0201 23.2858 24.0204ZM15.449 18.1428C15.3841 18.1428 15.3218 18.1687 15.2759 18.2146C15.2299 18.2605 15.2041 18.3228 15.2041 18.3877V23.2857C15.2041 23.3507 15.2299 23.4129 15.2759 23.4589C15.3218 23.5048 15.3841 23.5306 15.449 23.5306H23.2858C23.3507 23.5306 23.413 23.5048 23.4589 23.4589C23.5049 23.4129 23.5307 23.3507 23.5307 23.2857V18.3877C23.5307 18.3228 23.5049 18.2605 23.4589 18.2146C23.413 18.1687 23.3507 18.1428 23.2858 18.1428H15.449Z" fill="white" stroke="white" stroke-width="0.2"/>
<path d="M23.2859 14.9592H15.4491C15.0594 14.9592 14.6857 14.8044 14.4101 14.5288C14.1345 14.2533 13.9797 13.8795 13.9797 13.4898V2.71429C13.9797 2.32459 14.1345 1.95084 14.4101 1.67528C14.6857 1.39971 15.0594 1.2449 15.4491 1.2449H23.2859C23.6756 1.2449 24.0493 1.39971 24.3249 1.67528C24.6004 1.95084 24.7552 2.32459 24.7552 2.71429V13.4898C24.7552 13.8795 24.6004 14.2533 24.3249 14.5288C24.0493 14.8044 23.6756 14.9592 23.2859 14.9592ZM15.4491 2.2245C15.3192 2.2245 15.1946 2.2761 15.1028 2.36795C15.0109 2.45981 14.9593 2.58439 14.9593 2.71429V13.4898C14.9593 13.6197 15.0109 13.7443 15.1028 13.8361C15.1946 13.928 15.3192 13.9796 15.4491 13.9796H23.2859C23.4158 13.9796 23.5403 13.928 23.6322 13.8361C23.7241 13.7443 23.7757 13.6197 23.7757 13.4898V2.71429C23.7757 2.58439 23.7241 2.45981 23.6322 2.36795C23.5403 2.2761 23.4158 2.2245 23.2859 2.2245H15.4491Z" fill="white" stroke="white" stroke-width="0.2"/>
<path d="M23.2858 15.2041H15.449C14.9945 15.2036 14.5588 15.0228 14.2374 14.7014C13.916 14.38 13.7353 13.9443 13.7347 13.4898V2.71429C13.7353 2.25979 13.916 1.82405 14.2374 1.50268C14.5588 1.1813 14.9945 1.00052 15.449 1H23.2858C23.7403 1.00052 24.176 1.1813 24.4974 1.50268C24.8188 1.82405 24.9995 2.25979 25 2.71429V13.4898C24.9995 13.9443 24.8188 14.38 24.4974 14.7014C24.176 15.0228 23.7403 15.2036 23.2858 15.2041ZM15.449 1.4898C15.1244 1.49006 14.813 1.61915 14.5835 1.84873C14.3539 2.07831 14.2248 2.38961 14.2245 2.71429V13.4898C14.2248 13.8145 14.3539 14.1258 14.5835 14.3554C14.813 14.5849 15.1244 14.714 15.449 14.7143H23.2858C23.6104 14.714 23.9217 14.5849 24.1513 14.3554C24.3809 14.1258 24.51 13.8145 24.5103 13.4898V2.71429C24.51 2.38961 24.3809 2.07831 24.1513 1.84873C23.9217 1.61915 23.6104 1.49006 23.2858 1.4898H15.449ZM23.2858 14.2245H15.449C15.2543 14.2242 15.0675 14.1467 14.9298 14.009C14.7921 13.8713 14.7146 13.6846 14.7143 13.4898V2.71429C14.7146 2.51951 14.7921 2.33279 14.9298 2.19506C15.0675 2.05734 15.2543 1.97985 15.449 1.97959H23.2858C23.4805 1.97985 23.6673 2.05734 23.805 2.19506C23.9427 2.33279 24.0202 2.51951 24.0205 2.71429V13.4898C24.0202 13.6846 23.9427 13.8713 23.805 14.009C23.6673 14.1467 23.4805 14.2242 23.2858 14.2245ZM15.449 2.46939C15.3841 2.46939 15.3218 2.49519 15.2759 2.54112C15.2299 2.58704 15.2041 2.64933 15.2041 2.71429V13.4898C15.2041 13.5547 15.2299 13.617 15.2759 13.663C15.3218 13.7089 15.3841 13.7347 15.449 13.7347H23.2858C23.3507 13.7347 23.413 13.7089 23.4589 13.663C23.5049 13.617 23.5307 13.5547 23.5307 13.4898V2.71429C23.5307 2.64933 23.5049 2.58704 23.4589 2.54112C23.413 2.49519 23.3507 2.46939 23.2858 2.46939H15.449Z" fill="white" stroke="white" stroke-width="0.2"/>
<path d="M23.2858 15.2041H15.449C14.9945 15.2036 14.5588 15.0228 14.2374 14.7014C13.916 14.38 13.7353 13.9443 13.7347 13.4898V2.71429C13.7353 2.25979 13.916 1.82405 14.2374 1.50268C14.5588 1.1813 14.9945 1.00052 15.449 1H23.2858C23.7403 1.00052 24.176 1.1813 24.4974 1.50268C24.8188 1.82405 24.9995 2.25979 25 2.71429V13.4898C24.9995 13.9443 24.8188 14.38 24.4974 14.7014C24.176 15.0228 23.7403 15.2036 23.2858 15.2041ZM15.449 1.4898C15.1244 1.49006 14.813 1.61915 14.5835 1.84873C14.3539 2.07831 14.2248 2.38961 14.2245 2.71429V13.4898C14.2248 13.8145 14.3539 14.1258 14.5835 14.3554C14.813 14.5849 15.1244 14.714 15.449 14.7143H23.2858C23.6104 14.714 23.9217 14.5849 24.1513 14.3554C24.3809 14.1258 24.51 13.8145 24.5103 13.4898V2.71429C24.51 2.38961 24.3809 2.07831 24.1513 1.84873C23.9217 1.61915 23.6104 1.49006 23.2858 1.4898H15.449ZM23.2858 14.2245H15.449C15.2543 14.2242 15.0675 14.1467 14.9298 14.009C14.7921 13.8713 14.7146 13.6846 14.7143 13.4898V2.71429C14.7146 2.51951 14.7921 2.33279 14.9298 2.19506C15.0675 2.05734 15.2543 1.97985 15.449 1.97959H23.2858C23.4805 1.97985 23.6673 2.05734 23.805 2.19506C23.9427 2.33279 24.0202 2.51951 24.0205 2.71429V13.4898C24.0202 13.6846 23.9427 13.8713 23.805 14.009C23.6673 14.1467 23.4805 14.2242 23.2858 14.2245ZM15.449 2.46939C15.3841 2.46939 15.3218 2.49519 15.2759 2.54112C15.2299 2.58704 15.2041 2.64933 15.2041 2.71429V13.4898C15.2041 13.5547 15.2299 13.617 15.2759 13.663C15.3218 13.7089 15.3841 13.7347 15.449 13.7347H23.2858C23.3507 13.7347 23.413 13.7089 23.4589 13.663C23.5049 13.617 23.5307 13.5547 23.5307 13.4898V2.71429C23.5307 2.64933 23.5049 2.58704 23.4589 2.54112C23.413 2.49519 23.3507 2.46939 23.2858 2.46939H15.449Z" fill="white" stroke="white" stroke-width="0.2"/>
</svg>
