<svg width="24" height="24" viewBox="0 0 24 24" fill="none" xmlns="http://www.w3.org/2000/svg">
<path d="M7.92815 3.2119H7.71387C7.83173 3.2119 7.92815 3.11547 7.92815 2.99761V3.2119H16.071V2.99761C16.071 3.11547 16.1674 3.2119 16.2853 3.2119H16.071V5.14047H17.9996V2.99761C17.9996 2.05208 17.2308 1.28333 16.2853 1.28333H7.71387C6.76833 1.28333 5.99958 2.05208 5.99958 2.99761V5.14047H7.92815V3.2119ZM21.4282 5.14047H2.57101C2.0969 5.14047 1.71387 5.5235 1.71387 5.99761V6.85475C1.71387 6.97261 1.8103 7.06904 1.92815 7.06904H3.54601L4.20762 21.078C4.25048 21.9914 5.00583 22.7119 5.91923 22.7119H18.0799C18.996 22.7119 19.7487 21.994 19.7916 21.078L20.4532 7.06904H22.071C22.1889 7.06904 22.2853 6.97261 22.2853 6.85475V5.99761C22.2853 5.5235 21.9023 5.14047 21.4282 5.14047ZM17.8737 20.7833H6.12548L5.47726 7.06904H18.5219L17.8737 20.7833Z" fill="#D60024"/>
</svg>
