<svg width="9"  height="16" viewBox="0 0 9 16" fill="none" xmlns="http://www.w3.org/2000/svg">
<path d="M4.13636 15.4545V0.90909H5.06818V15.4545H4.13636ZM7.27273 5.27273C7.20455 4.69697 6.92803 4.25 6.44318 3.93182C5.95833 3.61364 5.36364 3.45455 4.65909 3.45455C4.14394 3.45455 3.69318 3.53788 3.30682 3.70455C2.92424 3.87121 2.625 4.10038 2.40909 4.39205C2.19697 4.68371 2.09091 5.01515 2.09091 5.38636C2.09091 5.69697 2.16477 5.96401 2.3125 6.1875C2.46402 6.4072 2.6572 6.59091 2.89205 6.73864C3.12689 6.88258 3.37311 7.00189 3.63068 7.09659C3.88826 7.1875 4.125 7.26136 4.34091 7.31818L5.52273 7.63636C5.82576 7.71591 6.16288 7.82576 6.53409 7.96591C6.90909 8.10606 7.26705 8.29735 7.60795 8.53977C7.95265 8.77841 8.23674 9.08523 8.46023 9.46023C8.68371 9.83523 8.79545 10.2955 8.79545 10.8409C8.79545 11.4697 8.63068 12.0379 8.30114 12.5455C7.97538 13.053 7.49811 13.4564 6.86932 13.7557C6.24432 14.0549 5.48485 14.2045 4.59091 14.2045C3.75758 14.2045 3.03598 14.0701 2.42614 13.8011C1.82008 13.5322 1.3428 13.1572 0.994318 12.6761C0.649621 12.1951 0.454545 11.6364 0.409091 11H1.86364C1.90152 11.4394 2.04924 11.803 2.30682 12.0909C2.56818 12.375 2.89773 12.5871 3.29545 12.7273C3.69697 12.8636 4.12879 12.9318 4.59091 12.9318C5.12879 12.9318 5.61174 12.8447 6.03977 12.6705C6.4678 12.4924 6.80682 12.2462 7.05682 11.9318C7.30682 11.6136 7.43182 11.2424 7.43182 10.8182C7.43182 10.4318 7.32386 10.1174 7.10795 9.875C6.89205 9.63258 6.60795 9.43561 6.25568 9.28409C5.90341 9.13258 5.52273 9 5.11364 8.88636L3.68182 8.47727C2.77273 8.21591 2.05303 7.8428 1.52273 7.35795C0.992424 6.87311 0.727273 6.23864 0.727273 5.45455C0.727273 4.80303 0.903409 4.23485 1.25568 3.75C1.61174 3.26136 2.08902 2.88258 2.6875 2.61364C3.28977 2.34091 3.96212 2.20455 4.70455 2.20455C5.45455 2.20455 6.12121 2.33901 6.70455 2.60795C7.28788 2.87311 7.75 3.23674 8.09091 3.69886C8.43561 4.16098 8.61742 4.68561 8.63636 5.27273H7.27273Z" fill="#9e9e9e"/>
</svg>
