<svg width="38" height="38" viewBox="0 0 38 38" fill="none" xmlns="http://www.w3.org/2000/svg">
<path d="M13.7305 22.6889C13.7305 24.7314 15.298 26.3781 17.2455 26.3781H21.2196C22.9138 26.3781 24.2913 24.9372 24.2913 23.1639C24.2913 21.2322 23.4521 20.5514 22.2013 20.1081L15.8205 17.8914C14.5696 17.4481 13.7305 16.7672 13.7305 14.8356C13.7305 13.0622 15.108 11.6214 16.8021 11.6214H20.7763C22.7238 11.6214 24.2913 13.2681 24.2913 15.3106" stroke="#D60024" stroke-width="1.5" stroke-linecap="round" stroke-linejoin="round"/>
<path d="M19 9.5V28.5" stroke="#D60024" stroke-width="1.5" stroke-linecap="round" stroke-linejoin="round"/>
<path d="M19 34.8333C27.7445 34.8333 34.8333 27.7445 34.8333 19C34.8333 10.2555 27.7445 3.16666 19 3.16666C10.2555 3.16666 3.16667 10.2555 3.16667 19C3.16667 27.7445 10.2555 34.8333 19 34.8333Z" stroke="#D60024" stroke-width="1.5" stroke-linecap="round" stroke-linejoin="round"/>
</svg>
