<svg width="24" height="24" viewBox="0 0 24 24" fill="none" xmlns="http://www.w3.org/2000/svg">
<path d="M5.18832 18.4262C5.2419 18.4262 5.29547 18.4208 5.34904 18.4128L9.8544 17.6226C9.90797 17.6119 9.95886 17.5878 9.99636 17.5476L21.3508 6.19315C21.3757 6.16837 21.3954 6.13893 21.4088 6.10653C21.4222 6.07413 21.4292 6.03939 21.4292 6.00431C21.4292 5.96923 21.4222 5.93449 21.4088 5.90209C21.3954 5.86968 21.3757 5.84025 21.3508 5.81547L16.899 1.361C16.8481 1.31011 16.7812 1.28333 16.7089 1.28333C16.6365 1.28333 16.5696 1.31011 16.5187 1.361L5.16422 12.7155C5.12404 12.7556 5.09993 12.8039 5.08922 12.8574L4.29904 17.3628C4.27298 17.5063 4.28229 17.654 4.32616 17.7931C4.37004 17.9321 4.44715 18.0584 4.55082 18.161C4.72761 18.3324 4.94993 18.4262 5.18832 18.4262V18.4262ZM6.99368 13.7548L16.7089 4.04225L18.6723 6.00565L8.95707 15.7181L6.57582 16.1387L6.99368 13.7548V13.7548ZM21.8571 20.6762H2.14279C1.66868 20.6762 1.28564 21.0592 1.28564 21.5333V22.4976C1.28564 22.6155 1.38207 22.7119 1.49993 22.7119H22.4999C22.6178 22.7119 22.7142 22.6155 22.7142 22.4976V21.5333C22.7142 21.0592 22.3312 20.6762 21.8571 20.6762Z" fill="#08671A"/>
</svg>
