<svg width="38" height="38" viewBox="0 0 38 38" fill="none" xmlns="http://www.w3.org/2000/svg">
<path d="M26.125 10.6875H30.989C31.2832 10.6878 31.5668 10.7973 31.7849 10.9947C32.003 11.1922 32.14 11.4635 32.1694 11.7562L32.8938 19H30.5045L29.9108 13.0625H26.125V16.625C26.125 16.9399 25.9999 17.242 25.7772 17.4647C25.5545 17.6874 25.2525 17.8125 24.9375 17.8125C24.6226 17.8125 24.3205 17.6874 24.0978 17.4647C23.8751 17.242 23.75 16.9399 23.75 16.625V13.0625H14.25V16.625C14.25 16.9399 14.1249 17.242 13.9022 17.4647C13.6795 17.6874 13.3775 17.8125 13.0625 17.8125C12.7476 17.8125 12.4455 17.6874 12.2228 17.4647C12.0001 17.242 11.875 16.9399 11.875 16.625V13.0625H8.0869L6.1869 32.0625H19V34.4375H4.87352C4.70766 34.4373 4.54367 34.4024 4.39213 34.335C4.24058 34.2676 4.10483 34.1692 3.99363 34.0462C3.88243 33.9231 3.79824 33.7781 3.74648 33.6205C3.69473 33.463 3.67656 33.2963 3.69315 33.1313L5.83065 11.7562C5.86007 11.4635 5.99709 11.1922 6.21516 10.9947C6.43324 10.7973 6.71684 10.6878 7.01102 10.6875H11.875V9.85862C11.875 5.74038 15.048 2.375 19 2.375C22.952 2.375 26.125 5.74038 26.125 9.85862V10.6899V10.6875ZM23.75 10.6875V9.85862C23.75 7.02287 21.6078 4.75 19 4.75C16.3923 4.75 14.25 7.02287 14.25 9.85862V10.6899H23.75V10.6875ZM31.2241 28.6425L28.5 25.9207V34.4375C28.5 34.7524 28.3749 35.0545 28.1522 35.2772C27.9295 35.4999 27.6275 35.625 27.3125 35.625C26.9976 35.625 26.6955 35.4999 26.4728 35.2772C26.2501 35.0545 26.125 34.7524 26.125 34.4375V25.9207L23.4033 28.6425C23.2937 28.7559 23.1627 28.8464 23.0178 28.9086C22.8729 28.9709 22.7171 29.0036 22.5594 29.005C22.4018 29.0064 22.2454 28.9763 22.0995 28.9166C21.9535 28.8569 21.8209 28.7687 21.7094 28.6572C21.5979 28.5457 21.5098 28.4131 21.45 28.2672C21.3903 28.1213 21.3603 27.9649 21.3617 27.8072C21.363 27.6495 21.3958 27.4937 21.458 27.3488C21.5203 27.204 21.6107 27.0729 21.7241 26.9634L26.4741 22.2134C26.6968 21.9908 26.9988 21.8657 27.3137 21.8657C27.6286 21.8657 27.9306 21.9908 28.1533 22.2134L32.9033 26.9634C33.0167 27.0729 33.1072 27.204 33.1694 27.3488C33.2316 27.4937 33.2644 27.6495 33.2658 27.8072C33.2671 27.9649 33.2371 28.1213 33.1774 28.2672C33.1177 28.4131 33.0295 28.5457 32.918 28.6572C32.8065 28.7687 32.6739 28.8569 32.528 28.9166C32.382 28.9763 32.2257 29.0064 32.068 29.005C31.9103 29.0036 31.7545 28.9709 31.6096 28.9086C31.4647 28.8464 31.3337 28.7559 31.2241 28.6425Z" fill="#D60024"/>
</svg>
