<svg width="16" height="18" viewBox="0 0 16 18" fill="none" xmlns="http://www.w3.org/2000/svg">
<path d="M14.25 0.25C14.4312 0.250008 14.6063 0.315643 14.7429 0.434767C14.8795 0.553891 14.9684 0.718446 14.993 0.898L15 1V17C14.9999 17.19 14.9278 17.3729 14.798 17.5118C14.6683 17.6506 14.4907 17.7351 14.3011 17.748C14.1115 17.761 13.9241 17.7015 13.7767 17.5816C13.6293 17.4617 13.5329 17.2902 13.507 17.102L13.5 17V12H11.25C11.0688 12 10.8937 11.9344 10.7571 11.8152C10.6205 11.6961 10.5316 11.5316 10.507 11.352L10.5 11.25V4C10.5 3.00544 10.8951 2.05161 11.5983 1.34835C12.3016 0.645088 13.2554 0.25 14.25 0.25ZM8.25 0.25C8.43124 0.250008 8.60634 0.315643 8.74293 0.434767C8.87952 0.553891 8.96835 0.718446 8.993 0.898L9 1V5C9 6.953 7.6 8.578 5.75 8.93V17C5.74994 17.19 5.67776 17.3729 5.54803 17.5118C5.4183 17.6506 5.2407 17.7351 5.05112 17.748C4.86154 17.761 4.67411 17.7015 4.5267 17.5816C4.37929 17.4617 4.2829 17.2902 4.257 17.102L4.25 17V8.93C3.37077 8.7619 2.57328 8.30387 1.98502 7.62914C1.39676 6.95441 1.0517 6.10194 1.005 5.208L1 5V1C1.00006 0.809977 1.07224 0.627059 1.20197 0.488208C1.3317 0.349358 1.5093 0.264926 1.69888 0.251974C1.88846 0.239022 2.07589 0.298515 2.2233 0.418432C2.37071 0.53835 2.4671 0.70975 2.493 0.898L2.5 1V5C2.5 6.12 3.236 7.067 4.25 7.386V1C4.25006 0.809977 4.32224 0.627059 4.45197 0.488208C4.5817 0.349358 4.7593 0.264926 4.94888 0.251974C5.13846 0.239022 5.32589 0.298515 5.4733 0.418432C5.62071 0.53835 5.7171 0.70975 5.743 0.898L5.75 1V7.385C6.2272 7.23461 6.64834 6.9446 6.95905 6.55243C7.26975 6.16026 7.45575 5.68395 7.493 5.185L7.5 5V1C7.5 0.801088 7.57902 0.610322 7.71967 0.46967C7.86032 0.329018 8.05109 0.25 8.25 0.25ZM13.5 10.5V1.878C13.0889 2.02349 12.7289 2.2852 12.4637 2.63135C12.1985 2.97751 12.0395 3.39322 12.006 3.828L12 4V10.5H13.5Z" fill="#424242" stroke="#424242" stroke-width="0.2"/>
</svg>
