<svg width="13" height="16" viewBox="0 0 13 16" fill="none" xmlns="http://www.w3.org/2000/svg">
<path d="M4.4342 11.4195V3.01949C4.43289 2.93212 4.3974 2.84875 4.33533 2.78724C4.27327 2.72574 4.18957 2.691 4.1022 2.69049H2.5432C2.45461 2.69049 2.36966 2.72568 2.30702 2.78832C2.24438 2.85095 2.2092 2.93591 2.2092 3.02449V11.4245H0.929195C0.79717 11.4243 0.668073 11.4634 0.558253 11.5367C0.448433 11.61 0.362831 11.7142 0.312288 11.8361C0.261745 11.9581 0.248535 12.0923 0.274331 12.2218C0.300127 12.3513 0.363768 12.4702 0.457195 12.5635L2.8502 14.9565C2.91215 15.0185 2.98572 15.0678 3.06671 15.1013C3.1477 15.1349 3.23452 15.1522 3.3222 15.1522C3.40987 15.1522 3.49669 15.1349 3.57768 15.1013C3.65867 15.0678 3.73224 15.0185 3.79419 14.9565L6.18719 12.5635C6.28062 12.4702 6.34426 12.3513 6.37006 12.2218C6.39586 12.0923 6.38265 11.9581 6.3321 11.8361C6.28156 11.7142 6.19596 11.61 6.08614 11.5367C5.97632 11.4634 5.84722 11.4243 5.71519 11.4245H4.4342V11.4195Z" fill="#B8B8B8"/>
<path d="M10.5752 4.5765V12.9765C10.5752 13.0651 10.54 13.15 10.4774 13.2127C10.4147 13.2753 10.3298 13.3105 10.2412 13.3105H8.6842C8.59562 13.3105 8.51066 13.2753 8.44803 13.2127C8.38539 13.15 8.3502 13.0651 8.3502 12.9765V4.5765H7.0702C6.93818 4.57664 6.80908 4.5376 6.69926 4.46432C6.58944 4.39104 6.50384 4.28681 6.45329 4.16485C6.40275 4.04288 6.38954 3.90866 6.41534 3.77918C6.44113 3.64969 6.50477 3.53078 6.5982 3.4375L8.9912 1.0435C9.05315 0.981454 9.12673 0.932232 9.20772 0.898648C9.28871 0.865064 9.37552 0.847778 9.4632 0.847778C9.55088 0.847778 9.6377 0.865064 9.71869 0.898648C9.79968 0.932232 9.87325 0.981454 9.9352 1.0435L12.3272 3.4365C12.4206 3.52978 12.4843 3.64869 12.5101 3.77818C12.5359 3.90766 12.5227 4.04188 12.4721 4.16385C12.4216 4.28581 12.336 4.39004 12.2261 4.46332C12.1163 4.5366 11.9872 4.57564 11.8552 4.5755H10.5752V4.5765Z" fill="#B8B8B8"/>
</svg>
