<svg width="39" height="39" viewBox="0 0 39 39" fill="none" xmlns="http://www.w3.org/2000/svg">
<path d="M19.0254 19.9747C23.3947 19.9747 26.9368 16.4327 26.9368 12.0633C26.9368 7.69397 23.3947 4.15192 19.0254 4.15192C14.656 4.15192 11.114 7.69397 11.114 12.0633C11.114 16.4327 14.656 19.9747 19.0254 19.9747Z" stroke="#D60024" stroke-width="1.5" stroke-linecap="round" stroke-linejoin="round"/>
<path d="M5.43359 35.7975C5.43359 29.6741 11.5254 24.7215 19.0254 24.7215C20.5443 24.7215 22.0159 24.9272 23.3925 25.307" stroke="#D60024" stroke-width="1.5" stroke-linecap="round" stroke-linejoin="round"/>
<path d="M34.8482 29.4684C34.8482 30.6551 34.5159 31.7785 33.9305 32.7279C33.5982 33.2975 33.1709 33.8038 32.6804 34.2152C31.5728 35.2121 30.1171 35.7975 28.519 35.7975C26.2089 35.7975 24.1994 34.5633 23.1076 32.7279C22.5222 31.7785 22.1899 30.6551 22.1899 29.4684C22.1899 27.4747 23.1076 25.6867 24.5633 24.5317C25.6551 23.6614 27.0317 23.1393 28.519 23.1393C32.0159 23.1393 34.8482 25.9715 34.8482 29.4684Z" stroke="#D60024" stroke-width="1.5" stroke-miterlimit="10" stroke-linecap="round" stroke-linejoin="round"/>
<path d="M26.0507 29.4684L27.6171 31.0348L30.9874 27.9178" stroke="#D60024" stroke-width="1.5" stroke-linecap="round" stroke-linejoin="round"/>
</svg>
